<mxfile host="app.diagrams.net" modified="2022-03-22T07:59:53.634Z" agent="5.0 (Windows NT 10.0; Win64; x64) AppleWebKit/537.36 (KHTML, like Gecko) Chrome/99.0.4844.74 Safari/537.36" etag="lj6NbE7ccbp3Y7XY62Kp" version="15.5.4" type="github">
  <diagram id="vbG3FIW5HMbsnFNwvr5P" name="Page-1">
    <mxGraphModel dx="1422" dy="1931" grid="1" gridSize="10" guides="1" tooltips="1" connect="1" arrows="1" fold="1" page="1" pageScale="1" pageWidth="827" pageHeight="1169" math="0" shadow="0">
      <root>
        <mxCell id="0" />
        <mxCell id="1" parent="0" />
        <mxCell id="mxn-0Ewtc127_fvlIkrz-1" value="" style="rounded=0;whiteSpace=wrap;html=1;" parent="1" vertex="1">
          <mxGeometry x="40" y="-1120" width="250" height="400" as="geometry" />
        </mxCell>
        <mxCell id="mxn-0Ewtc127_fvlIkrz-2" value="" style="rounded=0;whiteSpace=wrap;html=1;" parent="1" vertex="1">
          <mxGeometry x="330" y="-1120" width="250" height="400" as="geometry" />
        </mxCell>
        <mxCell id="mxn-0Ewtc127_fvlIkrz-5" value="" style="rounded=0;whiteSpace=wrap;html=1;" parent="1" vertex="1">
          <mxGeometry x="51" y="-1070" width="230" height="320" as="geometry" />
        </mxCell>
        <mxCell id="mxn-0Ewtc127_fvlIkrz-6" value="" style="rounded=0;whiteSpace=wrap;html=1;" parent="1" vertex="1">
          <mxGeometry x="66" y="-1100" width="200" height="20" as="geometry" />
        </mxCell>
        <mxCell id="mxn-0Ewtc127_fvlIkrz-12" value="" style="rounded=0;whiteSpace=wrap;html=1;" parent="1" vertex="1">
          <mxGeometry x="66" y="-1100" width="20" height="20" as="geometry" />
        </mxCell>
        <mxCell id="mxn-0Ewtc127_fvlIkrz-13" value="" style="rounded=0;whiteSpace=wrap;html=1;" parent="1" vertex="1">
          <mxGeometry x="86" y="-1100" width="20" height="20" as="geometry" />
        </mxCell>
        <mxCell id="mxn-0Ewtc127_fvlIkrz-14" value="" style="rounded=0;whiteSpace=wrap;html=1;" parent="1" vertex="1">
          <mxGeometry x="106" y="-1100" width="20" height="20" as="geometry" />
        </mxCell>
        <mxCell id="mxn-0Ewtc127_fvlIkrz-15" value="" style="rounded=0;whiteSpace=wrap;html=1;" parent="1" vertex="1">
          <mxGeometry x="126" y="-1100" width="20" height="20" as="geometry" />
        </mxCell>
        <mxCell id="mxn-0Ewtc127_fvlIkrz-16" value="" style="rounded=0;whiteSpace=wrap;html=1;" parent="1" vertex="1">
          <mxGeometry x="146" y="-1100" width="20" height="20" as="geometry" />
        </mxCell>
        <mxCell id="mxn-0Ewtc127_fvlIkrz-17" value="" style="rounded=0;whiteSpace=wrap;html=1;" parent="1" vertex="1">
          <mxGeometry x="166" y="-1100" width="20" height="20" as="geometry" />
        </mxCell>
        <mxCell id="mxn-0Ewtc127_fvlIkrz-18" value="" style="rounded=0;whiteSpace=wrap;html=1;" parent="1" vertex="1">
          <mxGeometry x="186" y="-1100" width="20" height="20" as="geometry" />
        </mxCell>
        <mxCell id="mxn-0Ewtc127_fvlIkrz-19" value="" style="rounded=0;whiteSpace=wrap;html=1;" parent="1" vertex="1">
          <mxGeometry x="206" y="-1100" width="20" height="20" as="geometry" />
        </mxCell>
        <mxCell id="mxn-0Ewtc127_fvlIkrz-20" value="" style="rounded=0;whiteSpace=wrap;html=1;" parent="1" vertex="1">
          <mxGeometry x="226" y="-1100" width="20" height="20" as="geometry" />
        </mxCell>
        <mxCell id="mxn-0Ewtc127_fvlIkrz-21" value="" style="rounded=0;whiteSpace=wrap;html=1;" parent="1" vertex="1">
          <mxGeometry x="246" y="-1100" width="20" height="20" as="geometry" />
        </mxCell>
        <mxCell id="mxn-0Ewtc127_fvlIkrz-25" value="" style="triangle;whiteSpace=wrap;html=1;rotation=-90;" parent="1" vertex="1">
          <mxGeometry x="66" y="-750" width="20" height="30" as="geometry" />
        </mxCell>
        <mxCell id="mxn-0Ewtc127_fvlIkrz-28" value="" style="triangle;whiteSpace=wrap;html=1;rotation=-90;" parent="1" vertex="1">
          <mxGeometry x="246" y="-750" width="20" height="30" as="geometry" />
        </mxCell>
        <mxCell id="mxn-0Ewtc127_fvlIkrz-29" value="&amp;nbsp;빨&amp;nbsp; 주&amp;nbsp; 노&amp;nbsp; 초&amp;nbsp; &amp;nbsp;파&amp;nbsp; 남&amp;nbsp; &amp;nbsp;보&amp;nbsp; 핑&amp;nbsp; 흰&amp;nbsp; &amp;nbsp;검" style="text;html=1;strokeColor=none;fillColor=none;align=left;verticalAlign=middle;whiteSpace=wrap;rounded=0;" parent="1" vertex="1">
          <mxGeometry x="66" y="-1105" width="204" height="30" as="geometry" />
        </mxCell>
        <mxCell id="mxn-0Ewtc127_fvlIkrz-30" value="&lt;font style=&quot;font-size: 30px&quot;&gt;그림 그리는 곳&lt;/font&gt;" style="text;html=1;strokeColor=none;fillColor=none;align=center;verticalAlign=middle;whiteSpace=wrap;rounded=0;" parent="1" vertex="1">
          <mxGeometry x="51" y="-1070" width="229" height="320" as="geometry" />
        </mxCell>
        <mxCell id="mxn-0Ewtc127_fvlIkrz-32" value="연필&lt;br&gt;한 번 더 누르면 굵기 선택" style="text;html=1;strokeColor=none;fillColor=none;align=center;verticalAlign=middle;whiteSpace=wrap;rounded=0;fontSize=12;" parent="1" vertex="1">
          <mxGeometry x="32" y="-790" width="94" height="30" as="geometry" />
        </mxCell>
        <mxCell id="mxn-0Ewtc127_fvlIkrz-33" value="지우개&lt;br&gt;한 번 더 누르면&lt;br&gt;굵기 선택" style="text;html=1;strokeColor=none;fillColor=none;align=center;verticalAlign=middle;whiteSpace=wrap;rounded=0;fontSize=12;" parent="1" vertex="1">
          <mxGeometry x="209" y="-790" width="94" height="30" as="geometry" />
        </mxCell>
        <mxCell id="mxn-0Ewtc127_fvlIkrz-34" value="이미지 저장" style="rounded=0;whiteSpace=wrap;html=1;fontSize=12;align=center;" parent="1" vertex="1">
          <mxGeometry x="106" y="-745" width="110" height="20" as="geometry" />
        </mxCell>
        <mxCell id="mxn-0Ewtc127_fvlIkrz-35" value="누르면 그린 거&lt;br&gt;이미지 갤러리에 저장" style="text;html=1;strokeColor=none;fillColor=none;align=center;verticalAlign=middle;whiteSpace=wrap;rounded=0;fontSize=12;" parent="1" vertex="1">
          <mxGeometry x="118" y="-710" width="94" height="30" as="geometry" />
        </mxCell>
        <mxCell id="mxn-0Ewtc127_fvlIkrz-36" value="" style="ellipse;whiteSpace=wrap;html=1;fontSize=12;align=center;" parent="1" vertex="1">
          <mxGeometry x="350" y="-1050" width="70" height="70" as="geometry" />
        </mxCell>
        <mxCell id="mxn-0Ewtc127_fvlIkrz-37" value="저장 누르면" style="text;html=1;strokeColor=none;fillColor=none;align=center;verticalAlign=middle;whiteSpace=wrap;rounded=0;fontSize=12;" parent="1" vertex="1">
          <mxGeometry x="330" y="-1150" width="80" height="30" as="geometry" />
        </mxCell>
        <mxCell id="mxn-0Ewtc127_fvlIkrz-38" value="" style="endArrow=none;html=1;rounded=0;fontSize=12;" parent="1" edge="1">
          <mxGeometry width="50" height="50" relative="1" as="geometry">
            <mxPoint x="368" y="-1012" as="sourcePoint" />
            <mxPoint x="378" y="-1002" as="targetPoint" />
          </mxGeometry>
        </mxCell>
        <mxCell id="mxn-0Ewtc127_fvlIkrz-42" value="" style="endArrow=none;html=1;rounded=0;fontSize=12;" parent="1" edge="1">
          <mxGeometry width="50" height="50" relative="1" as="geometry">
            <mxPoint x="378" y="-1000" as="sourcePoint" />
            <mxPoint x="405" y="-1028" as="targetPoint" />
          </mxGeometry>
        </mxCell>
        <mxCell id="mxn-0Ewtc127_fvlIkrz-43" value="저장되었습니다." style="text;html=1;strokeColor=none;fillColor=none;align=center;verticalAlign=middle;whiteSpace=wrap;rounded=0;fontSize=12;" parent="1" vertex="1">
          <mxGeometry x="430" y="-1030" width="110" height="30" as="geometry" />
        </mxCell>
        <mxCell id="mxn-0Ewtc127_fvlIkrz-44" value="공유하기" style="text;html=1;strokeColor=none;fillColor=none;align=center;verticalAlign=middle;whiteSpace=wrap;rounded=0;fontSize=12;" parent="1" vertex="1">
          <mxGeometry x="425" y="-900" width="60" height="30" as="geometry" />
        </mxCell>
        <mxCell id="mxn-0Ewtc127_fvlIkrz-45" value="카톡" style="ellipse;whiteSpace=wrap;html=1;fontSize=12;align=center;" parent="1" vertex="1">
          <mxGeometry x="407.5" y="-860" width="40" height="40" as="geometry" />
        </mxCell>
        <mxCell id="mxn-0Ewtc127_fvlIkrz-46" value="이메일" style="ellipse;whiteSpace=wrap;html=1;fontSize=12;align=center;" parent="1" vertex="1">
          <mxGeometry x="462.5" y="-860" width="40" height="40" as="geometry" />
        </mxCell>
        <mxCell id="mxn-0Ewtc127_fvlIkrz-48" value="그림판으로" style="rounded=0;whiteSpace=wrap;html=1;fontSize=12;align=center;" parent="1" vertex="1">
          <mxGeometry x="356.25" y="-760" width="197.5" height="30" as="geometry" />
        </mxCell>
        <mxCell id="mxn-0Ewtc127_fvlIkrz-49" value="" style="curved=1;endArrow=classic;html=1;rounded=0;fontSize=12;" parent="1" edge="1">
          <mxGeometry width="50" height="50" relative="1" as="geometry">
            <mxPoint x="532" y="-735" as="sourcePoint" />
            <mxPoint x="522" y="-755" as="targetPoint" />
            <Array as="points">
              <mxPoint x="542" y="-735" />
              <mxPoint x="552" y="-755" />
            </Array>
          </mxGeometry>
        </mxCell>
      </root>
    </mxGraphModel>
  </diagram>
</mxfile>
